# xmcd
#
# Track frame offsets:
#	150
#	18571
#	40775
#
# Disc length: 760 seconds
#
# Revision: 0
# Processed by: cddbd v1.5.2PL0 Copyright (c) Steve Scherf et al.
# Submitted via: audiograbber 1.83.01
#
DISCID=1b02f603
DTITLE=Kasey Chambers - Pony
DYEAR=2004
DGENRE=Country
TTITLE0=Pony
TTITLE1=Driving With The Brakes On
TTITLE2=Hollywood (Live)
EXTD=
EXTT0=
EXTT1=
EXTT2=
PLAYORDER=
